<?xml version="1.0" encoding="UTF-8" standalone="no"?>
<!-- Created with Inkscape (http://www.inkscape.org/) -->

<svg
   xmlns:dc="http://purl.org/dc/elements/1.1/"
   xmlns:cc="http://creativecommons.org/ns#"
   xmlns:rdf="http://www.w3.org/1999/02/22-rdf-syntax-ns#"
   xmlns:svg="http://www.w3.org/2000/svg"
   xmlns="http://www.w3.org/2000/svg"
   xmlns:sodipodi="http://sodipodi.sourceforge.net/DTD/sodipodi-0.dtd"
   xmlns:inkscape="http://www.inkscape.org/namespaces/inkscape"
   width="103.68845mm"
   height="27.714222mm"
   viewBox="0 0 367.40001 98.199999"
   id="svg4328"
   version="1.1"
   inkscape:version="0.91 r13725"
   sodipodi:docname="jaguar-text.svg">
  <defs
     id="defs4330" />
  <sodipodi:namedview
     id="base"
     pagecolor="#ffffff"
     bordercolor="#666666"
     borderopacity="1.0"
     inkscape:pageopacity="0.0"
     inkscape:pageshadow="2"
     inkscape:zoom="1.4"
     inkscape:cx="85.372006"
     inkscape:cy="98.734322"
     inkscape:document-units="px"
     inkscape:current-layer="layer1"
     showgrid="false"
     fit-margin-top="0"
     fit-margin-left="0"
     fit-margin-right="0"
     fit-margin-bottom="0"
     inkscape:window-width="1920"
     inkscape:window-height="1025"
     inkscape:window-x="0"
     inkscape:window-y="25"
     inkscape:window-maximized="1" />
  <metadata
     id="metadata4333">
    <rdf:RDF>
      <cc:Work
         rdf:about="">
        <dc:format>image/svg+xml</dc:format>
        <dc:type
           rdf:resource="http://purl.org/dc/dcmitype/StillImage" />
        <dc:title></dc:title>
      </cc:Work>
    </rdf:RDF>
  </metadata>
  <g
     inkscape:label="Layer 1"
     inkscape:groupmode="layer"
     id="layer1"
     transform="translate(-153.4429,-226.11935)">
    <g
       id="XMLID_19_"
       transform="translate(-134.8571,-292.18065)">
      <path
         style="fill:#18a5d9"
         inkscape:connector-curvature="0"
         d="m 295.6,616.1 c -2,0 -3.5,-0.1 -5.5,-0.4 -1.3,-0.2 -1.8,-0.7 -1.8,-1.6 l 0,-3.8 c 0,-0.9 0.7,-1.4 2.2,-1.4 l 4.2,0 c 3.9,0 4.8,-1.2 4.8,-6.4 l 0,-60.9 c 0,-1 0.7,-2.1 1.8,-2.1 l 5.3,0 c 1.1,0 1.8,0.9 1.8,2.1 l 0,60.9 c 0,10.6 -4.6,13.6 -12.8,13.6 z m 11,-85.6 -5.2,0 c -1,0 -2.1,-0.8 -2.1,-1.9 l 0,-8.3 c 0,-1 0.9,-2 2.1,-2 l 5.2,0 c 1,0 2,0.9 2,2 l 0,8.3 c 0,1.1 -0.9,1.9 -2,1.9 z"
         class="st1"
         id="XMLID_3_" />
      <path
         style="fill:#18a5d9"
         inkscape:connector-curvature="0"
         d="m 360.8,595.9 -4.7,0 c -1.1,0 -2.1,-0.9 -2.1,-2 l 0,-2.3 c -4.9,2.9 -10,5 -15.8,5 -8.7,0 -16.7,-3.8 -16.7,-16.6 l 0,-1.2 c 0,-11.1 6.5,-16.6 24.7,-16.6 l 7.6,0 0,-4.1 c 0,-8.6 -3,-11.6 -11,-11.6 -6.7,0 -11.6,0.4 -15.7,0.8 -0.2,0 -0.3,0 -0.5,0 -0.9,0 -1.8,-0.3 -1.8,-1.6 l 0,-3.6 c 0,-1.1 0.7,-1.7 2.2,-1.9 4.2,-0.7 8.9,-1.3 15.9,-1.3 14.2,0 20,7.2 20,19.3 l 0,35.8 c -0.1,1 -1,1.9 -2.1,1.9 z m -7,-27.3 -7.6,0 c -12.4,0 -15.7,2.8 -15.7,10 l 0,1.2 c 0,7.4 3.5,9.3 9.4,9.3 4.7,0 8.9,-1.4 13.8,-4.1 l 0,-16.4 z"
         class="st1"
         id="XMLID_7_" />
      <path
         style="fill:#18a5d9"
         inkscape:connector-curvature="0"
         d="m 421.6,546.4 -3.7,0.7 c 1.8,1.9 3.5,5 3.5,10.6 l 0,0.8 c 0,11.3 -7,17.5 -22.8,17.5 -5.4,0 -8.9,-0.8 -11.9,-2 -1.7,0.8 -2.6,1.9 -2.6,3.5 0,1.7 0.8,2.7 3.2,3.3 l 15.3,3.9 c 10,2.6 19.7,5.4 19.7,15.1 l 0,0.8 c 0,9.8 -6.6,15.9 -23.4,15.9 -16.2,0 -23.6,-6.3 -23.6,-16.3 l 0,-0.9 c 0,-5.7 3.1,-10.5 6.5,-13 l -0.7,-0.3 c -3.3,-1.4 -4.7,-4.8 -4.7,-8 l 0,-0.1 c 0,-2.8 1.3,-5.7 4.2,-7.4 -3.2,-3 -4.7,-6.7 -4.7,-11.9 l 0,-0.8 c 0,-9.1 5.1,-18.1 22.8,-18.1 l 22.4,0 c 1.2,0 2.4,1 2.4,2.3 l 0,2.7 c -0.1,1.1 -0.8,1.5 -1.9,1.7 z m -8.3,53.3 c 0,-4 -3.3,-5.6 -12.5,-8 l -11.6,-3 c -3,2.6 -5,5.1 -5,10.5 l 0,0.9 c 0,5.7 3.4,9.3 14.8,9.3 11.7,0 14.4,-3.3 14.4,-8.9 l 0,-0.8 z m -0.8,-42 c 0,-6.2 -2.8,-11 -13.8,-11 -11.5,0 -13.8,5.2 -13.8,11 l 0,0.8 c 0,4.5 2.1,10.5 13.8,10.5 11.1,0 13.8,-4.3 13.8,-10.5 l 0,-0.8 z"
         class="st1"
         id="XMLID_10_" />
      <path
         style="fill:#18a5d9"
         inkscape:connector-curvature="0"
         d="m 475.3,595.9 -5.1,0 c -1.1,0 -1.9,-0.9 -1.9,-2 l 0,-1.9 c -5.6,3.2 -10.3,4.7 -16.3,4.7 -12.3,0 -17.8,-7.7 -17.8,-21.3 l 0,-33.7 c 0,-1.1 0.9,-2.1 2.1,-2.1 l 4.9,0 c 1.1,0 2.1,0.9 2.1,2.1 l 0,33.7 c 0,10.4 3.5,13.5 11.3,13.5 4.3,0 9.1,-1.6 13.8,-4 l 0,-43.3 c 0,-1 0.9,-2.1 2.1,-2.1 l 5,0 c 1,0 1.9,0.9 1.9,2.1 l 0,52.3 c -0.2,1.1 -1,2 -2.1,2 z"
         class="st1"
         id="XMLID_15_" />
      <path
         style="fill:#18a5d9"
         inkscape:connector-curvature="0"
         d="m 528.4,595.9 -4.7,0 c -1.1,0 -2,-0.9 -2,-2 l 0,-2.3 c -4.9,2.9 -10,5 -15.8,5 -8.7,0 -16.7,-3.8 -16.7,-16.6 l 0,-1.2 c 0,-11.1 6.5,-16.6 24.7,-16.6 l 7.6,0 0,-4.1 c 0,-8.6 -3,-11.6 -11,-11.6 -6.7,0 -11.6,0.4 -15.7,0.8 -0.2,0 -0.3,0 -0.5,0 -0.9,0 -1.8,-0.3 -1.8,-1.6 l 0,-3.6 c 0,-1.1 0.7,-1.7 2.2,-1.9 4.2,-0.7 8.9,-1.3 15.9,-1.3 14.2,0 20,7.2 20,19.3 l 0,35.8 c -0.2,1 -1.1,1.9 -2.2,1.9 z m -7,-27.3 -7.6,0 c -12.4,0 -15.7,2.8 -15.7,10 l 0,1.2 c 0,7.4 3.5,9.3 9.4,9.3 4.7,0 8.9,-1.4 13.8,-4.1 l 0,-16.4 z"
         class="st1"
         id="XMLID_43_" />
      <path
         style="fill:#18a5d9"
         inkscape:connector-curvature="0"
         d="m 567.5,546.6 c -4.7,0 -9,1.2 -14.1,4.3 l 0,43 c 0,1 -0.9,2 -2,2 l -5,0 c -1,0 -1.9,-0.9 -1.9,-2 l 0,-52.3 c 0,-1.1 0.8,-2.1 1.9,-2.1 l 4.8,0 c 1.1,0 1.9,0.9 1.9,2.1 l 0,2.2 c 5.1,-3.6 9.8,-4.9 14.5,-4.9 1.4,0 2.2,0.6 2.2,1.8 l 0,4.2 c -0.1,1.1 -0.8,1.7 -2.3,1.7 z"
         class="st1"
         id="XMLID_46_" />
      <path
         style="fill:#19ccde"
         inkscape:connector-curvature="0"
         d="m 632.6,595.9 -6,0 c -0.9,0 -1.5,-0.7 -1.7,-1.5 l -6.7,-23.6 -26.5,0 -6.6,23.6 c -0.2,0.8 -1,1.5 -1.8,1.5 l -6,0 c -1,0 -1.7,-0.7 -1.7,-1.6 0,-0.2 0,-0.5 0.1,-0.7 l 19,-66.7 c 1.7,-6.3 6.6,-7.8 10.5,-7.8 3.8,0 8.6,1.4 10.4,7.7 l 19,66.8 c 0.1,0.2 0.1,0.5 0.1,0.7 -0.3,0.9 -0.9,1.6 -2.1,1.6 z M 606.9,529 c -0.3,-1.1 -0.9,-1.8 -1.9,-1.8 -1.1,0 -1.7,0.7 -2,1.8 l -9.3,33.7 22.7,0 -9.5,-33.7 z"
         class="st2"
         id="XMLID_48_" />
      <path
         style="fill:#19ccde"
         inkscape:connector-curvature="0"
         d="m 653.9,595.9 -5.6,0 c -1,0 -1.8,-0.9 -1.8,-2 l 0,-72.2 c 0,-1 0.7,-1.9 1.8,-1.9 l 5.6,0 c 1,0 1.8,0.8 1.8,1.9 l 0,72.2 c 0,1 -0.7,2 -1.8,2 z"
         class="st2"
         id="XMLID_51_" />
    </g>
  </g>
</svg>
