<?xml version="1.0" encoding="UTF-8" standalone="no"?>
<!-- Created with Inkscape (http://www.inkscape.org/) -->

<svg
   xmlns:dc="http://purl.org/dc/elements/1.1/"
   xmlns:cc="http://creativecommons.org/ns#"
   xmlns:rdf="http://www.w3.org/1999/02/22-rdf-syntax-ns#"
   xmlns:svg="http://www.w3.org/2000/svg"
   xmlns="http://www.w3.org/2000/svg"
   xmlns:sodipodi="http://sodipodi.sourceforge.net/DTD/sodipodi-0.dtd"
   xmlns:inkscape="http://www.inkscape.org/namespaces/inkscape"
   width="117.06578mm"
   height="44.873333mm"
   viewBox="0 0 414.80001 159"
   id="svg4412"
   version="1.1"
   inkscape:version="0.91 r13725"
   sodipodi:docname="jaguar-image.svg">
  <defs
     id="defs4414" />
  <sodipodi:namedview
     id="base"
     pagecolor="#ffffff"
     bordercolor="#666666"
     borderopacity="1.0"
     inkscape:pageopacity="0.0"
     inkscape:pageshadow="2"
     inkscape:zoom="0.49497475"
     inkscape:cx="166.59817"
     inkscape:cy="-147.75893"
     inkscape:document-units="px"
     inkscape:current-layer="layer1"
     showgrid="false"
     fit-margin-top="0"
     fit-margin-left="0"
     fit-margin-right="0"
     fit-margin-bottom="0"
     inkscape:window-width="1920"
     inkscape:window-height="1025"
     inkscape:window-x="0"
     inkscape:window-y="25"
     inkscape:window-maximized="1" />
  <metadata
     id="metadata4417">
    <rdf:RDF>
      <cc:Work
         rdf:about="">
        <dc:format>image/svg+xml</dc:format>
        <dc:type
           rdf:resource="http://purl.org/dc/dcmitype/StillImage" />
        <dc:title></dc:title>
      </cc:Work>
    </rdf:RDF>
  </metadata>
  <g
     inkscape:label="Layer 1"
     inkscape:groupmode="layer"
     id="layer1"
     transform="translate(-209.74286,-224.29078)">
    <g
       id="XMLID_1_"
       transform="translate(-62.857143,-119.30922)">
      <line
         style="fill:#2e7c9e"
         y2="463.5"
         x2="540.20001"
         y1="391"
         x1="505.89999"
         class="st3"
         id="XMLID_41_" />
      <polygon
         style="fill:#23a0cf"
         points="499,393.3 462.7,405.4 499.4,440 515.3,432.4 499.5,393.1 "
         class="st4"
         id="XMLID_40_" />
      <polygon
         style="fill:#19ccde"
         points="532.9,464.7 521.5,435.8 501.2,445.2 487.8,471.7 "
         class="st2"
         id="XMLID_39_" />
      <polygon
         style="fill:#2e7c9e"
         points="447.5,433.3 455.7,411.1 485.4,441.9 468.4,449.6 "
         class="st3"
         id="XMLID_38_" />
      <polygon
         style="fill:#2e7c9e"
         points="457.3,479.2 447.5,465.2 485.4,452.7 476.5,474.8 "
         class="st3"
         id="XMLID_37_" />
      <polygon
         style="fill:#2e7c9e"
         points="334.1,443.5 341.2,450.6 320.6,461.8 323.4,448.1 "
         class="st3"
         id="XMLID_36_" />
      <polygon
         style="fill:#2e7c9e"
         points="411.5,420.3 440.7,417 437.8,432.7 404.7,427 "
         class="st3"
         id="XMLID_35_" />
      <polygon
         style="fill:#19ccde"
         points="392,449.6 387.5,437 438.5,444.7 424.5,463.5 "
         class="st2"
         id="XMLID_34_" />
      <polygon
         style="fill:#23a0cf"
         points="424.5,472 400.9,469 409.3,484.8 426.3,481.8 "
         class="st4"
         id="XMLID_33_" />
      <polygon
         style="fill:#19ccde"
         points="632.5,454.7 653.5,469.4 680.5,456.3 657.8,445.8 "
         class="st2"
         id="XMLID_32_" />
      <polygon
         style="fill:#19ccde"
         points="599.7,425.5 614.5,402.3 563.1,407.4 560.4,420.9 598.9,425.4 "
         class="st2"
         id="XMLID_31_" />
      <path
         style="fill:#2e7c9e"
         inkscape:connector-curvature="0"
         d="m 626,404.1 c 0,0 14,-4.4 14.6,-4.6 0.4,-0.1 11.5,-0.1 15.9,0 l -2,-13.6 -10.2,-11.5 -26.1,26 1.5,1.4 -0.2,0 6.5,2.3 z"
         class="st3"
         id="XMLID_30_" />
      <polygon
         style="fill:#2e7c9e"
         points="615.6,397.9 640.1,373.6 610.8,373.6 612,364.7 583.1,367.4 "
         class="st3"
         id="XMLID_29_" />
      <polygon
         style="fill:#2e7c9e"
         points="687.4,472.5 683.1,459 658.7,470.7 "
         class="st3"
         id="XMLID_28_" />
      <polygon
         style="fill:#23a0cf"
         points="542.1,367.6 562.6,403.9 611.7,399 577.7,367.2 578.9,365.9 578.9,365.9 "
         class="st4"
         id="XMLID_27_" />
      <polygon
         style="fill:#2e7c9e"
         points="658.3,399.5 658.3,399.5 658.3,399.5 "
         class="st3"
         id="XMLID_26_" />
      <polygon
         style="fill:#19ccde"
         points="583.8,363.8 616.1,360.8 614.9,370.1 644.5,369.9 657.8,384.3 659.7,396.7 666.1,383.6 654.2,372.7 654.2,369.2 648.7,360.7 627.5,352.9 616.6,343.6 "
         class="st2"
         id="XMLID_25_" />
      <polygon
         style="fill:#4de1f0"
         points="277.2,502.6 290.7,492.8 290,487.8 283.8,486 272.6,497.5 "
         class="st5"
         id="XMLID_24_" />
      <polygon
         style="fill:#23a0cf"
         points="380.2,430.7 357.8,436.9 366.9,451.6 "
         class="st4"
         id="XMLID_23_" />
      <polygon
         style="fill:#23a0cf"
         points="300.9,476.5 300.9,487.6 317.7,484.3 314.8,472.1 "
         class="st4"
         id="XMLID_22_" />
      <polygon
         style="fill:#19ccde"
         points="359.3,482.4 339,476.7 330.9,495.5 339,498.1 "
         class="st2"
         id="XMLID_21_" />
      <polygon
         style="fill:#2e7c9e"
         points="389.8,469 364.3,466 374.3,454.1 389.8,457.9 "
         class="st3"
         id="XMLID_20_" />
      <polygon
         style="fill:#2e7c9e"
         points="554.3,450.9 596.4,428.6 559.7,424.4 "
         class="st3"
         id="XMLID_18_" />
      <polygon
         style="fill:#2e7c9e"
         points="654,444 635.1,435.2 591.1,440.1 590.4,440.2 611.7,458.1 630.1,451.8 "
         class="st3"
         id="XMLID_17_" />
      <polygon
         style="fill:#19ccde"
         points="559.8,406.1 538.7,368.7 505.9,391 540.2,463.5 549.7,455.8 "
         class="st2"
         id="XMLID_13_" />
      <polygon
         style="fill:#19ccde"
         points="555.4,461.4 567,469.7 606.6,457.9 587.2,441.7 555,455.5 555,455.5 554.7,455.7 "
         class="st2"
         id="XMLID_5_" />
    </g>
  </g>
</svg>
